<svg xmlns="http://www.w3.org/2000/svg" viewBox="0 0 502.56 159.81"><defs><style>.cls-1{fill:#0d2d42;}</style></defs><g id="Layer_2" data-name="Layer 2"><g id="Layer_1-2" data-name="Layer 1"><path class="cls-1" d="M210.63,79.74A68.52,68.52,0,0,0,196.87,76Q189,74.57,184.76,73.4A16.07,16.07,0,0,1,178,69.87a8.25,8.25,0,0,1-2.53-6.35,10.18,10.18,0,0,1,4.29-8.76q4.29-3.12,11.46-3.12,7.41,0,12.23,3.88a14.54,14.54,0,0,1,5.37,9.11,1.32,1.32,0,0,0,1.29,1.12h10.74a1.31,1.31,0,0,0,1.32-1.41,24.55,24.55,0,0,0-4.25-11.76,27.12,27.12,0,0,0-10.94-9,39.45,39.45,0,0,0-31-.24,24.37,24.37,0,0,0-10.35,8.59A22,22,0,0,0,162,64.46q0,7.65,3.58,12.34a21.53,21.53,0,0,0,9.29,7,69.81,69.81,0,0,0,13.7,3.71,119.77,119.77,0,0,1,12.23,2.7,16.76,16.76,0,0,1,6.88,3.7,8.63,8.63,0,0,1,2.53,6.53,10.36,10.36,0,0,1-4.65,9q-4.65,3.23-12.17,3.23-8.58,0-13.93-4.41a16,16,0,0,1-5.82-10.56,1.31,1.31,0,0,0-1.27-1.16l-10.75-.19a1.32,1.32,0,0,0-1.34,1.37,25.91,25.91,0,0,0,4.24,13,28,28,0,0,0,11.59,9.82,39.49,39.49,0,0,0,17.16,3.52A36.84,36.84,0,0,0,209,120.84a25.87,25.87,0,0,0,10.82-9,22.88,22.88,0,0,0,3.88-13.06q0-7.51-3.65-12.11A22.81,22.81,0,0,0,210.63,79.74Z"/><path class="cls-1" d="M272.89,66.34a35.14,35.14,0,0,0-32.1,0A26.92,26.92,0,0,0,230,77.22a32.89,32.89,0,0,0-3.82,16A33.2,33.2,0,0,0,230,109.44a26.51,26.51,0,0,0,10.82,10.81,32.89,32.89,0,0,0,16,3.82q13.14,0,22-8l.1-.1q8.64-8.85,8.64-22.65a33,33,0,0,0-3.82-16A27,27,0,0,0,272.89,66.34Zm-3.18,41.33a16.23,16.23,0,0,1-12.87,5.59A16.06,16.06,0,0,1,244,107.67q-4.83-5.58-4.82-14.4T244,78.86a16.08,16.08,0,0,1,12.82-5.58,16.26,16.26,0,0,1,12.87,5.58q4.88,5.6,4.88,14.41T269.71,107.67Z"/><rect class="cls-1" x="291.88" y="41.06" width="12.7" height="82.31" rx="1.31"/><path class="cls-1" d="M317.51,39.06A7.61,7.61,0,0,0,312,41.23a7.82,7.82,0,0,0,0,10.94,8.1,8.1,0,0,0,11.06,0,7.82,7.82,0,0,0,0-10.94A7.63,7.63,0,0,0,317.51,39.06Z"/><rect class="cls-1" x="311.16" y="63.17" width="12.7" height="60.2" rx="1.31"/><path class="cls-1" d="M376.18,68a1.3,1.3,0,0,1-2.21.94,21.52,21.52,0,0,0-5.78-4.06,26,26,0,0,0-11.53-2.41,28.11,28.11,0,0,0-14.58,3.82A26.9,26.9,0,0,0,331.91,77.1a34,34,0,0,0-3.7,16.17,35,35,0,0,0,3.64,16.4A25.6,25.6,0,0,0,342,120.37a29,29,0,0,0,14.69,3.7q11,0,17.85-7.56a1.3,1.3,0,0,1,2.27.64l.87,5.13a1.3,1.3,0,0,0,1.29,1.09h8.63a1.31,1.31,0,0,0,1.31-1.31V42.37a1.31,1.31,0,0,0-1.31-1.31H377.5a1.32,1.32,0,0,0-1.32,1.31Zm-4.7,39.86a17.31,17.31,0,0,1-25.4-.06q-4.81-5.58-4.82-14.52t4.82-14.41a17.24,17.24,0,0,1,25.4,0q4.81,5.6,4.82,14.64Q376.3,102.32,371.48,107.85Z"/><path class="cls-1" d="M401.82,54.35a7.61,7.61,0,0,0,5.52-2.18,7.8,7.8,0,0,0,0-10.94,8.12,8.12,0,0,0-11,0,7.82,7.82,0,0,0,0,10.94A7.62,7.62,0,0,0,401.82,54.35Z"/><path class="cls-1" d="M489.34,64l-14.81,42.11a1.31,1.31,0,0,1-2.47,0L456.81,64a1.32,1.32,0,0,0-1.24-.86H432.76a1.32,1.32,0,0,1-1.31-1.32V58.11a6.29,6.29,0,0,1,1.35-4.47q1.35-1.41,4.41-1.41h9.15a1.31,1.31,0,0,0,1.31-1.31V42.37a1.31,1.31,0,0,0-1.31-1.31H435.45q-8.59,0-12.7,4.06t-4.12,12.05v4.68a1.32,1.32,0,0,1-1.31,1.32H396.78a1.3,1.3,0,0,0-1.31,1.31v57.58a1.31,1.31,0,0,0,1.31,1.31h10.08a1.31,1.31,0,0,0,1.31-1.31V75.65a1.3,1.3,0,0,1,1.31-1.31h7.84a1.31,1.31,0,0,1,1.31,1.31v46.41a1.31,1.31,0,0,0,1.31,1.31h10.2a1.31,1.31,0,0,0,1.31-1.31V75.65a1.31,1.31,0,0,1,1.31-1.31H446.4a1.3,1.3,0,0,1,1.22.83l18.67,48.17a1.3,1.3,0,0,1,0,1L464,129.6c-1,2.59-2,4.25-2.94,5s-2.63,1.12-5.06,1.12H448.4a1.3,1.3,0,0,0-1.31,1.31v8.55a1.31,1.31,0,0,0,1.31,1.31h12.33a14,14,0,0,0,6.93-1.47,12.08,12.08,0,0,0,4.35-4.35,55,55,0,0,0,3.88-8.29L502.47,65a1.31,1.31,0,0,0-1.22-1.79H490.58A1.32,1.32,0,0,0,489.34,64Z"/><path class="cls-1" d="M121.7,49.17a60.67,60.67,0,0,0-3.89-12.29A61.47,61.47,0,0,0,61.46,0h0A61.47,61.47,0,0,0,5.12,36.88,60.67,60.67,0,0,0,1.23,49.17,61.43,61.43,0,0,0,0,61.46V98.34a61.53,61.53,0,0,0,1.23,12.3,60.87,60.87,0,0,0,3.89,12.29,61.5,61.5,0,0,0,56.34,36.88h0a61.4,61.4,0,0,0,61.47-61.47V61.46A61.43,61.43,0,0,0,121.7,49.17ZM18.88,36.88A49.13,49.13,0,0,1,61.46,12.29h0a49.12,49.12,0,0,1,49.18,49.17,61.52,61.52,0,0,0-48.5-24.58H60.79A24.58,24.58,0,0,0,40.17,49.17a24.37,24.37,0,0,0-3.29,12.29A24.6,24.6,0,0,0,61.46,86.05h0a12.3,12.3,0,1,1,0,24.59h0A49.14,49.14,0,0,1,18.88,36.88Zm85.17,86.05a49.14,49.14,0,0,1-42.59,24.59h0A49.12,49.12,0,0,1,12.29,98.34a61.44,61.44,0,0,0,48.5,24.58h1.35a24.61,24.61,0,0,0,20.62-12.28,24.37,24.37,0,0,0,3.29-12.3A24.58,24.58,0,0,0,61.46,73.76h0a12.3,12.3,0,0,1,0-24.59h0a49.32,49.32,0,0,1,45.6,30.73,50.89,50.89,0,0,1,2,6.15,49.05,49.05,0,0,1-5,36.88Z"/></g></g></svg>